<?xml version="1.0" encoding="UTF-8"?>
<svg width="18px" height="18px" viewBox="0 0 18 18" version="1.1" xmlns="http://www.w3.org/2000/svg" xmlns:xlink="http://www.w3.org/1999/xlink">
    <!-- Generator: Sketch 61.2 (89653) - https://sketch.com -->
    <title>编组 6</title>
    <desc>Created with Sketch.</desc>
    <g id="设计规范" stroke="none" stroke-width="1" fill="none" fill-rule="evenodd">
        <g transform="translate(-205.000000, -2528.000000)" id="编组">
            <g transform="translate(184.000000, 2331.000000)">
                <g id="编组-7" transform="translate(0.000000, 178.000000)">
                    <g id="编组-6" transform="translate(20.026316, 18.000000)">
                        <rect id="矩形" x="0" y="0" width="20" height="20"></rect>
                        <path d="M3.28,6.976 L16.72,6.976 L18.064,18.4 L1.936,18.4 L3.28,6.976 Z M5.968,11.68 L7.312,11.68 L7.312,8.992 L5.968,8.992 L5.968,11.68 Z M12.688,11.68 L14.032,11.68 L14.032,8.992 L12.688,8.992 L12.688,11.68 Z M7.312,5.632 L5.968,5.632 C5.996224,4.483776 6.388224,3.531776 7.144,2.776 C7.899776,2.020224 8.851776,1.628224 10,1.6 C11.148224,1.628224 12.100224,2.020224 12.856,2.776 C13.611776,3.531776 14.003776,4.483776 14.032,5.632 L12.688,5.632 C12.674112,4.875776 12.411584,4.242304 11.900416,3.731584 C11.389248,3.220864 10.755776,2.958336 10,2.944 C9.243776,2.957888 8.610304,3.220416 8.099584,3.731584 C7.588864,4.242752 7.326336,4.876224 7.312,5.632 Z" id="形状" fill="#FFFFFF" fill-rule="nonzero" opacity="0.7"></path>
                    </g>
                </g>
            </g>
        </g>
    </g>
</svg>