<?xml version="1.0" encoding="UTF-8"?>
<svg width="20px" height="20px" viewBox="0 0 20 20" version="1.1" xmlns="http://www.w3.org/2000/svg" xmlns:xlink="http://www.w3.org/1999/xlink">
    <!-- Generator: Sketch 61.2 (89653) - https://sketch.com -->
    <title>编组 9</title>
    <desc>Created with Sketch.</desc>
    <g id="设计规范" stroke="none" stroke-width="1" fill="none" fill-rule="evenodd">
        <g transform="translate(-204.000000, -2643.000000)" id="编组">
            <g transform="translate(184.000000, 2331.000000)">
                <g id="编组-7备份-2" transform="translate(0.000000, 294.000000)">
                    <g id="编组-9" transform="translate(20.026316, 18.000000)">
                        <rect id="矩形" x="0" y="0" width="20" height="20"></rect>
                        <g id="question" transform="translate(0.500000, 0.500000)" fill="#FFFFFF" fill-rule="nonzero">
                            <path d="M9.34706932,0 C11.9900644,0.0694353721 14.1912993,0.98389032 15.9507738,2.74336484 C17.7102483,4.50283937 18.6247033,6.70407419 18.6941386,9.34706932 C18.6247033,11.9900644 17.7102483,14.1912993 15.9507738,15.9507738 C14.1912993,17.7102483 11.9900644,18.6247033 9.34706932,18.6941386 C6.70407419,18.6247033 4.50283937,17.7102483 2.74336484,15.9507738 C0.98389032,14.1912993 0.0694353721,11.9900644 0,9.34706932 C0.0694353721,6.70407419 0.98389032,4.50283937 2.74336484,2.74336484 C4.50283937,0.98389032 6.70407419,0.0694353721 9.34706932,0 Z M9.34706932,14.6882518 C9.65329711,14.6744537 9.90722583,14.5700781 10.1088555,14.375125 C10.3104851,14.1801718 10.4112999,13.9298039 10.4112999,13.6240212 C10.4112999,13.3182385 10.3104851,13.0643098 10.1088555,12.862235 C9.90722583,12.6601603 9.65329711,12.5593455 9.34706932,12.5597891 C9.04084152,12.5602357 8.78691281,12.6610505 8.58528317,12.862235 C8.38365353,13.0634196 8.28283871,13.3173483 8.28283871,13.6240212 C8.28283871,13.9306941 8.38365353,14.181062 8.58528317,14.375125 C8.78691281,14.5691879 9.04084152,14.6735635 9.34706932,14.6882518 Z M9.34706932,9.07600431 C9.12452005,9.08980236 8.93668846,9.16969755 8.78357457,9.31568987 C8.63046067,9.46168219 8.55390372,9.64951377 8.55390372,9.87918462 C8.55390372,10.1088555 8.63046067,10.3000253 8.78357457,10.4526941 C8.93668846,10.6053629 9.12452005,10.6819198 9.34706932,10.6823649 C10.2653076,10.6685669 11.0582506,10.3763597 11.7258985,9.80574336 C12.3935463,9.23512703 12.8108261,8.4978213 12.9777381,7.59382617 C13.1028108,6.68983104 12.9394596,5.86217031 12.4876846,5.11084397 C12.0359096,4.35951764 11.3718226,3.83096312 10.4954235,3.52518043 C9.61902452,3.24699384 8.77756574,3.27125171 7.97104718,3.59795404 C7.16452863,3.92465637 6.53849754,4.49148936 6.0929539,5.29845301 L7.4489466,6.15370985 C7.68529392,5.6805701 8.02957764,5.33984717 8.48179776,5.13154105 C8.93401787,4.92323494 9.4138341,4.89185549 9.92124643,5.03740271 C10.4286588,5.18294994 10.81812,5.46469731 11.0896301,5.88264484 C11.3611402,6.30059237 11.4586168,6.76994878 11.3820598,7.29071407 C11.3055029,7.81147936 11.0793928,8.23565827 10.7037297,8.56325079 C10.3280665,8.89084331 9.87606893,9.06131605 9.34773696,9.07466901 L9.34706932,9.07600431 Z" id="形状"></path>
                        </g>
                    </g>
                </g>
            </g>
        </g>
    </g>
</svg>