<?xml version="1.0" encoding="UTF-8"?>
<svg width="17px" height="17px" viewBox="0 0 17 17" version="1.1" xmlns="http://www.w3.org/2000/svg" xmlns:xlink="http://www.w3.org/1999/xlink">
    <!-- Generator: Sketch 61.2 (89653) - https://sketch.com -->
    <title>icon_账号信息</title>
    <desc>Created with Sketch.</desc>
    <g id="活动管理" stroke="none" stroke-width="1" fill="none" fill-rule="evenodd">
        <g id="活动管理(添加商品）" transform="translate(-21.000000, -371.000000)">
            <g id="编组-11">
                <g id="编组-17">
                    <g id="编组-7备份-3" transform="translate(0.000000, 352.000000)">
                        <g id="icon_账号信息" transform="translate(20.026316, 18.000000)">
                            <rect id="矩形" x="0" y="0" width="20" height="20"></rect>
                            <g id="s-custom" transform="translate(1.500000, 1.500000)" fill="#FFFFFF" fill-rule="nonzero" opacity="0.7">
                                <path d="M10.5633566,8.58145886 C12.3471703,9.13660164 13.7741368,10.1276562 14.8442559,11.5546226 C15.914375,12.981589 16.4627529,14.6265114 16.4893896,16.4893896 L0,16.4893896 C0.0266367062,14.6265114 0.575014611,12.981589 1.64513371,11.5546226 C2.71525282,10.1276562 4.14221922,9.13660164 5.92603293,8.58145886 L8.24469478,12.0499385 L10.5633566,8.58145886 Z M12.3670422,4.12234739 C12.3404055,5.28506076 11.9374724,6.25624352 11.1582431,7.03589569 C10.3790137,7.81554785 9.40783096,8.21848088 8.24469478,8.24469478 C7.08198142,8.21805808 6.11079865,7.81512505 5.33114649,7.03589569 C4.55149433,6.25666633 4.14856129,5.28548356 4.12234739,4.12234739 C4.1489841,2.95963402 4.55191713,1.98845126 5.33114649,1.2087991 C6.11037585,0.429146934 7.08155861,0.0262139014 8.24469478,0 C9.40740815,0.0266367062 10.3785909,0.429569738 11.1582431,1.2087991 C11.9378952,1.98802846 12.3408283,2.95921122 12.3670422,4.12234739 Z" id="形状"></path>
                            </g>
                        </g>
                    </g>
                </g>
            </g>
        </g>
    </g>
</svg>